<svg width="111" height="42" viewBox="0 0 111 42" fill="none" xmlns="http://www.w3.org/2000/svg">
<path d="M19.44 3.16C19.44 3.4 19.3733 3.56 19.24 3.64C19.1333 3.69333 19.0133 3.72 18.88 3.72C18.1867 3.74667 17.64 3.98667 17.24 4.44C16.8667 4.89333 16.5867 5.49333 16.4 6.24C16.2133 6.98667 16.0933 7.85333 16.04 8.84C16.0133 9.82667 16 10.8667 16 11.96V13.24C15.9733 14.76 15.88 16.2933 15.72 17.84C15.56 19.3867 15.1867 20.7867 14.6 22.04C14.04 23.2667 13.1867 24.2667 12.04 25.04C10.92 25.8133 9.36 26.2 7.36 26.2C6.53333 26.2 5.73333 26.08 4.96 25.84C4.18667 25.6 3.50667 25.2533 2.92 24.8C2.33333 24.32 1.86667 23.76 1.52 23.12C1.17333 22.4533 1 21.7067 1 20.88C1 20.64 1.08 20.36 1.24 20.04C1.4 19.6933 1.69333 19.52 2.12 19.52C2.54667 19.52 2.89333 19.64 3.16 19.88C3.42667 20.12 3.66667 20.4267 3.88 20.8C4.09333 21.1733 4.29333 21.5733 4.48 22C4.69333 22.4267 4.93333 22.8267 5.2 23.2C5.46667 23.5733 5.8 23.88 6.2 24.12C6.62667 24.36 7.14667 24.48 7.76 24.48C8.08 24.48 8.44 24.44 8.84 24.36C9.24 24.2533 9.62667 24.0933 10 23.88C10.3733 23.64 10.7067 23.32 11 22.92C11.2933 22.52 11.4933 22.0267 11.6 21.44C11.84 20.1067 11.9867 18.7067 12.04 17.24C12.12 15.7733 12.24 14.28 12.4 12.76C12.5867 11.24 12.8933 9.73333 13.32 8.24C13.7467 6.74667 14.4533 5.30667 15.44 3.92C15.1467 3.92 14.7867 3.92 14.36 3.92C13.96 3.89333 13.56 3.88 13.16 3.88C12.76 3.88 12.3867 3.88 12.04 3.88C11.72 3.85333 11.48 3.84 11.32 3.84C10.1733 3.84 9.04 3.77333 7.92 3.64C6.82667 3.48 5.6 3.4 4.24 3.4C3.46667 3.4 2.81333 3.64 2.28 4.12C1.77333 4.6 1.52 5.25333 1.52 6.08C1.52 6.56 1.62667 6.93333 1.84 7.2C2.02667 7.46667 2.26667 7.70667 2.56 7.92C2.85333 8.10667 3.17333 8.28 3.52 8.44C3.86667 8.57333 4.18667 8.76 4.48 9C4.77333 9.21333 5.01333 9.50667 5.2 9.88C5.41333 10.2267 5.52 10.6933 5.52 11.28C5.52 11.52 5.45333 11.76 5.32 12C5.18667 12.24 4.93333 12.36 4.56 12.36C3.97333 12.36 3.41333 12.2 2.88 11.88C2.34667 11.56 1.88 11.1333 1.48 10.6C1.08 10.0667 0.773333 9.46667 0.56 8.8C0.32 8.13333 0.2 7.46667 0.2 6.8C0.2 2.90667 2.94667 0.96 8.44 0.96C8.81333 0.96 9.24 0.973333 9.72 0.999999C10.2267 1.02667 10.7467 1.05333 11.28 1.08C11.8133 1.08 12.3467 1.09333 12.88 1.12C13.44 1.14667 13.9333 1.16 14.36 1.16C15.3733 1.16 16.1867 1.08 16.8 0.919998C17.4133 0.733332 17.7467 0.639999 17.8 0.639999C17.9333 0.613333 18.08 0.733333 18.24 0.999999C18.4267 1.26667 18.6133 1.56 18.8 1.88C19.0133 2.25333 19.2267 2.68 19.44 3.16ZM32.1691 13.56C32.2757 13.3733 32.4624 13.28 32.7291 13.28C32.8624 13.28 32.9557 13.36 33.0091 13.52C33.0624 13.68 33.0891 13.8133 33.0891 13.92C33.0624 14.7467 32.8757 15.4933 32.5291 16.16C32.2091 16.8 31.8624 17.36 31.4891 17.84C31.2757 18.1333 31.0357 18.4 30.7691 18.64C30.5291 18.88 30.2757 19.1067 30.0091 19.32C29.9824 19.7733 29.9557 20.0933 29.9291 20.28C29.9291 20.44 29.9157 20.5733 29.8891 20.68C29.8357 21.08 29.7024 21.5867 29.4891 22.2C29.2757 22.8133 28.9691 23.4133 28.5691 24C28.1957 24.5867 27.7291 25.08 27.1691 25.48C26.6357 25.9067 26.0091 26.12 25.2891 26.12C25.0491 26.12 24.7691 26.0933 24.4491 26.04C24.1557 25.9867 23.8491 25.9067 23.5291 25.8C23.2091 25.72 22.9024 25.6133 22.6091 25.48C22.3157 25.3733 22.0624 25.2533 21.8491 25.12C21.1824 24.7467 20.6357 24.3067 20.2091 23.8C19.7824 23.2933 19.4491 22.76 19.2091 22.2C18.9957 21.6133 18.8491 21.0267 18.7691 20.44C18.6891 19.8267 18.6491 19.24 18.6491 18.68C18.6491 17.72 18.7424 16.7467 18.9291 15.76C19.1424 14.7733 19.3957 13.8267 19.6891 12.92C19.9824 12.0133 20.3157 11.2 20.6891 10.48C21.0624 9.76 21.4224 9.2 21.7691 8.8C22.1157 8.42667 22.5024 8.17333 22.9291 8.04C23.3557 7.88 23.7424 7.8 24.0891 7.8C24.5157 7.8 24.9424 7.90667 25.3691 8.12C25.7957 8.33333 26.2091 8.6 26.6091 8.92C27.0091 9.24 27.3957 9.61333 27.7691 10.04C28.1691 10.44 28.5424 10.84 28.8891 11.24C29.1557 11.5333 29.3557 12.0133 29.4891 12.68C29.6224 13.32 29.7291 13.9733 29.8091 14.64C29.8624 15.0133 29.9024 15.4133 29.9291 15.84C29.9557 16.2667 29.9691 16.7067 29.9691 17.16C30.3691 16.84 30.6891 16.5067 30.9291 16.16C31.1691 15.7867 31.3557 15.44 31.4891 15.12C31.6491 14.8 31.7691 14.5067 31.8491 14.24C31.9557 13.9467 32.0624 13.72 32.1691 13.56ZM27.6491 17C27.6491 16.8933 27.6357 16.6533 27.6091 16.28C27.6091 15.9067 27.5824 15.4667 27.5291 14.96C27.5024 14.4533 27.4357 13.9333 27.3291 13.4C27.2491 12.84 27.1157 12.3333 26.9291 11.88C26.7691 11.4267 26.5557 11.0533 26.2891 10.76C26.0224 10.44 25.6891 10.28 25.2891 10.28C24.8891 10.28 24.5024 10.44 24.1291 10.76C23.7557 11.08 23.4224 11.4933 23.1291 12C22.8357 12.5067 22.5957 13.08 22.4091 13.72C22.2491 14.36 22.1691 14.9867 22.1691 15.6C22.1691 16.6667 22.3824 17.4533 22.8091 17.96C23.2357 18.44 23.9691 18.68 25.0091 18.68C25.7824 18.68 26.4091 18.56 26.8891 18.32C27.3957 18.08 27.6491 17.8933 27.6491 17.76V17ZM27.4491 20.28C27.1291 20.4933 26.6891 20.6533 26.1291 20.76C25.5691 20.8667 25.1024 20.92 24.7291 20.92C24.0091 20.92 23.4491 20.8667 23.0491 20.76C22.6757 20.6533 22.2624 20.44 21.8091 20.12L21.7691 20.96C21.7691 21.2533 21.8091 21.56 21.8891 21.88C21.9691 22.2 22.0891 22.4933 22.2491 22.76C22.4357 23.0267 22.6891 23.2533 23.0091 23.44C23.3291 23.6 23.7291 23.68 24.2091 23.68C24.7957 23.68 25.2891 23.5733 25.6891 23.36C26.1157 23.12 26.4491 22.8267 26.6891 22.48C26.9557 22.1333 27.1424 21.76 27.2491 21.36C27.3824 20.96 27.4491 20.6 27.4491 20.28ZM43.175 19.36C43.175 19.5467 43.1083 20 42.975 20.72C42.8683 21.4133 42.655 22.16 42.335 22.96C42.0417 23.7333 41.6283 24.4267 41.095 25.04C40.5883 25.6533 39.935 25.96 39.135 25.96C38.2817 25.96 37.6017 25.6533 37.095 25.04C36.5883 24.4533 36.2017 23.7467 35.935 22.92C35.6683 22.0667 35.495 21.1867 35.415 20.28C35.335 19.3467 35.295 18.5733 35.295 17.96C35.295 17.2667 35.335 16.5733 35.415 15.88C35.495 15.16 35.5483 14.4533 35.575 13.76C35.575 13.5467 35.4683 13.4133 35.255 13.36C35.0417 13.3067 34.8417 13.28 34.655 13.28C34.335 13.28 34.135 13.32 34.055 13.4C33.975 13.48 33.9217 13.5733 33.895 13.68L33.735 14.96C33.6283 15.8133 33.5083 16.64 33.375 17.44C33.2683 18.2133 33.135 18.9067 32.975 19.52C32.8417 20.1067 32.6683 20.5867 32.455 20.96C32.2683 21.3067 32.0417 21.48 31.775 21.48H31.735C31.6283 21.48 31.5217 21.4533 31.415 21.4C31.335 21.3467 31.295 21.2133 31.295 21C31.295 20.8933 31.3217 20.7333 31.375 20.52C31.5883 19.5867 31.7217 18.8133 31.775 18.2C31.8283 17.5867 31.8683 17.04 31.895 16.56V16.28C31.895 16.1467 31.895 15.9867 31.895 15.8C31.9217 15.6133 31.935 15.3867 31.935 15.12V14.08C31.935 13.7867 31.935 13.48 31.935 13.16C31.935 12.84 31.9083 12.4933 31.855 12.12L31.735 9.76C31.735 9.6 31.8017 9.45333 31.935 9.32C32.0683 9.18667 32.2417 9.06667 32.455 8.96C32.6683 8.85333 32.895 8.77333 33.135 8.72C33.375 8.66667 33.5883 8.64 33.775 8.64C34.2283 8.64 34.455 8.93333 34.455 9.52V9.72L34.415 10.6V10.84C34.415 11.0267 34.455 11.1467 34.535 11.2C34.615 11.2267 34.775 11.2667 35.015 11.32H35.135C35.3483 11.3467 35.695 11.3733 36.175 11.4C36.655 11.4267 37.135 11.48 37.615 11.56C38.095 11.64 38.5083 11.7733 38.855 11.96C39.2283 12.12 39.415 12.36 39.415 12.68C39.415 12.7867 39.3883 12.9467 39.335 13.16C39.2817 13.3467 39.215 13.5467 39.135 13.76C39.055 13.9467 38.9883 14.12 38.935 14.28C38.8817 14.44 38.855 14.5467 38.855 14.6C38.375 16.44 38.135 18.36 38.135 20.36C38.135 20.52 38.1483 20.8133 38.175 21.24C38.2017 21.6667 38.255 22.1067 38.335 22.56C38.415 23.0133 38.535 23.4133 38.695 23.76C38.855 24.1067 39.055 24.28 39.295 24.28C39.695 24.28 40.055 24.04 40.375 23.56C40.695 23.0533 40.975 22.48 41.215 21.84C41.455 21.1733 41.6417 20.5067 41.775 19.84C41.935 19.1733 42.0417 18.68 42.095 18.36C42.1483 18.0667 42.2283 17.8933 42.335 17.84C42.4683 17.76 42.5883 17.72 42.695 17.72C43.0683 17.72 43.255 17.96 43.255 18.44C43.255 18.4933 43.2417 18.64 43.215 18.88C43.215 19.0933 43.2017 19.2533 43.175 19.36ZM47.3722 6.48C47.3722 6.66667 47.2789 6.82667 47.0922 6.96C46.9055 7.06667 46.6922 7.14667 46.4522 7.2C46.2389 7.25333 46.0255 7.29333 45.8122 7.32C45.5989 7.34667 45.4655 7.36 45.4122 7.36C44.8522 7.36 44.2922 7.2 43.7322 6.88C43.1989 6.56 42.7055 6.05333 42.2522 5.36C42.1989 5.28 42.1189 5.17333 42.0122 5.04C41.9055 4.90667 41.8522 4.81333 41.8522 4.76C41.8522 4.62667 41.9455 4.50667 42.1322 4.4C42.3455 4.29333 42.5722 4.18667 42.8122 4.08C43.0789 3.97333 43.3189 3.89333 43.5322 3.84C43.7722 3.78667 43.9322 3.76 44.0122 3.76C44.5455 3.76 45.0655 3.89333 45.5722 4.16C46.1055 4.42667 46.5322 4.92 46.8522 5.64C46.9055 5.72 46.9989 5.86667 47.1322 6.08C47.2922 6.26667 47.3722 6.4 47.3722 6.48ZM51.4522 18.6C51.3722 19.24 51.2255 19.9067 51.0122 20.6C50.7989 21.2933 50.4922 21.9467 50.0922 22.56C49.7189 23.1467 49.2389 23.64 48.6522 24.04C48.0655 24.4133 47.3455 24.6 46.4922 24.6C45.8255 24.6 45.1455 24.3733 44.4522 23.92C43.7589 23.44 43.2789 22.8133 43.0122 22.04C42.7722 21.2667 42.6522 20.52 42.6522 19.8C42.6522 19.5867 42.6655 19.2667 42.6922 18.84C42.7189 18.4133 42.7322 17.8933 42.7322 17.28V12.88C42.7322 12.6667 42.7189 12.44 42.6922 12.2C42.6922 11.96 42.6655 11.7333 42.6122 11.52C42.5855 11.4133 42.5322 11.2933 42.4522 11.16C42.3989 11.0267 42.3722 10.9333 42.3722 10.88C42.3722 10.7733 42.4389 10.6933 42.5722 10.64C42.7055 10.56 42.8522 10.5067 43.0122 10.48C43.1722 10.4533 43.3189 10.44 43.4522 10.44C43.6122 10.44 43.6922 10.44 43.6922 10.44C43.7722 10.44 43.9589 10.4533 44.2522 10.48C44.5455 10.48 44.8522 10.52 45.1722 10.6C45.4922 10.68 45.7722 10.8133 46.0122 11C46.2789 11.16 46.4122 11.4 46.4122 11.72C46.4389 11.8 46.3855 11.9467 46.2522 12.16C46.1455 12.3733 46.0389 12.7467 45.9322 13.28C45.9055 13.4933 45.8789 13.6933 45.8522 13.88C45.8255 14.04 45.7989 14.2267 45.7722 14.44C45.7455 14.6533 45.7189 14.92 45.6922 15.24C45.6655 15.5333 45.6389 15.92 45.6122 16.4V18.8C45.6122 19.2267 45.6255 19.6667 45.6522 20.12C45.6789 20.5467 45.7322 20.9467 45.8122 21.32C45.9189 21.6667 46.0789 21.96 46.2922 22.2C46.5055 22.4133 46.7855 22.52 47.1322 22.52C47.6389 22.52 48.0389 22.3733 48.3322 22.08C48.6255 21.7867 48.8522 21.5333 49.0122 21.32C49.3055 20.92 49.5322 20.4267 49.6922 19.84C49.8522 19.2267 49.9989 18.6 50.1322 17.96L50.2122 17.56C50.2922 17.16 50.5322 16.96 50.9322 16.96C51.3322 16.96 51.5322 17.24 51.5322 17.8V18L51.4522 18.6ZM63.5763 26.04C63.5763 26.3067 63.4563 26.4933 63.2163 26.6C62.9763 26.7067 62.7496 26.76 62.5363 26.76L61.7363 26.68C61.6029 26.68 61.5363 26.76 61.5363 26.92L61.4963 27.4C61.5229 28.12 61.5363 29.0267 61.5363 30.12C61.5363 31.2133 61.5363 32.2667 61.5363 33.28C61.5363 34.3467 61.4963 35.3867 61.4162 36.4C61.3629 37.44 61.2163 38.36 60.9763 39.16C60.7363 39.9867 60.3896 40.64 59.9362 41.12C59.5096 41.6267 58.9096 41.88 58.1363 41.88C57.4696 41.88 56.7629 41.84 56.0163 41.76C55.2963 41.7067 54.6296 41.5467 54.0163 41.28C53.4296 41.0133 52.9363 40.6133 52.5363 40.08C52.1629 39.5733 51.9763 38.88 51.9763 38C51.9763 37.12 52.0696 36.2133 52.2563 35.28C52.4696 34.3733 52.7629 33.48 53.1363 32.6C53.5096 31.7467 53.9496 30.92 54.4563 30.12C54.9896 29.3467 55.5629 28.6533 56.1763 28.04C56.4963 27.72 56.8429 27.3867 57.2163 27.04C57.6163 26.72 57.9629 26.4533 58.2563 26.24V26.2C58.3096 25.64 58.3496 25.08 58.3763 24.52C58.4029 23.96 58.4163 23.3867 58.4163 22.8C58.2829 23.04 58.1229 23.3733 57.9363 23.8C57.7496 24.2 57.5229 24.5867 57.2563 24.96C57.0163 25.3333 56.7363 25.6533 56.4163 25.92C56.0963 26.2133 55.7363 26.36 55.3363 26.36C55.1229 26.36 54.9363 26.32 54.7763 26.24C54.6163 26.16 54.3896 26.12 54.0963 26.12C53.3496 26.0667 52.7229 25.8667 52.2163 25.52C51.7363 25.1733 51.3496 24.6933 51.0563 24.08C50.7896 23.4667 50.6029 22.7467 50.4963 21.92C50.3896 21.0667 50.3363 20.12 50.3363 19.08C50.3363 17.8267 50.4029 16.5333 50.5363 15.2C50.6963 13.8667 50.9629 12.6533 51.3363 11.56C51.7096 10.44 52.2029 9.53333 52.8163 8.84C53.4563 8.12 54.2563 7.76 55.2163 7.76C55.3229 7.76 55.4563 7.8 55.6163 7.88C55.8029 7.96 55.9896 8.05333 56.1763 8.16C56.3896 8.24 56.5896 8.33333 56.7763 8.44C56.9896 8.52 57.1496 8.57333 57.2563 8.6C57.7896 8.70667 58.2829 8.84 58.7363 9C59.1896 9.16 59.5763 9.37333 59.8963 9.64C60.2163 9.88 60.4696 10.2133 60.6563 10.64C60.8429 11.04 60.9363 11.5467 60.9363 12.16C60.9363 12.5867 60.8963 12.9733 60.8163 13.32C60.7629 13.6667 60.7363 14.1067 60.7363 14.64C60.7363 14.8533 60.8163 15 60.9763 15.08C61.1363 15.16 61.3096 15.2267 61.4963 15.28C61.7096 15.3333 61.8963 15.4 62.0563 15.48C62.2163 15.5333 62.2963 15.6667 62.2963 15.88C62.2963 15.9333 62.2296 16.0667 62.0963 16.28C61.9896 16.4667 61.9229 16.5867 61.8963 16.64C61.8163 16.8533 61.7496 17.2 61.6963 17.68C61.6429 18.1333 61.6029 18.64 61.5763 19.2C61.5496 19.7333 61.5229 20.2933 61.4963 20.88C61.4963 21.44 61.4963 21.9467 61.4963 22.4C61.4963 22.7467 61.4963 23.2133 61.4963 23.8C61.4963 24.36 61.5096 24.8267 61.5363 25.2H61.6963C61.7496 25.2 61.8029 25.1867 61.8563 25.16C61.9096 25.16 61.9496 25.16 61.9763 25.16C62.2163 25.16 62.5363 25.2267 62.9363 25.36C63.3629 25.52 63.5763 25.7467 63.5763 26.04ZM58.4563 13.68C58.4563 13.3867 58.4296 13.0533 58.3763 12.68C58.3229 12.3067 58.2296 11.96 58.0963 11.64C57.9629 11.2933 57.7629 11.0133 57.4963 10.8C57.2563 10.56 56.9496 10.44 56.5763 10.44C56.0696 10.44 55.5896 10.64 55.1363 11.04C54.7096 11.44 54.3229 12.0133 53.9763 12.76C53.6563 13.48 53.3896 14.3733 53.1763 15.44C52.9896 16.48 52.8963 17.6667 52.8963 19C52.8963 19.56 52.9096 20.1467 52.9363 20.76C52.9896 21.3467 53.0563 21.88 53.1363 22.36C53.2429 22.84 53.3896 23.24 53.5763 23.56C53.7896 23.88 54.0563 24.04 54.3763 24.04C54.9363 24.04 55.4296 23.8 55.8563 23.32C56.2829 22.84 56.6296 22.2533 56.8963 21.56C57.1896 20.84 57.4029 20.1067 57.5363 19.36C57.6963 18.5867 57.7896 17.92 57.8163 17.36C57.8429 16.5867 57.8829 16.0667 57.9363 15.8C57.9896 15.5067 58.0429 15.32 58.0963 15.24C58.2563 15.0267 58.3496 14.7733 58.3763 14.48C58.4296 14.1867 58.4563 13.92 58.4563 13.68ZM58.2963 27.6C57.6829 28.0267 57.0963 28.6267 56.5363 29.4C56.0029 30.1733 55.5363 31.0133 55.1363 31.92C54.7363 32.8267 54.4163 33.7467 54.1763 34.68C53.9629 35.6133 53.8563 36.4533 53.8563 37.2C53.8563 37.4667 53.8829 37.76 53.9363 38.08C53.9896 38.4 54.0696 38.6933 54.1763 38.96C54.3096 39.2533 54.4829 39.4933 54.6963 39.68C54.9363 39.8667 55.2163 39.96 55.5362 39.96C56.0963 39.96 56.5496 39.72 56.8963 39.24C57.2696 38.7867 57.5496 38.24 57.7363 37.6C57.9496 36.96 58.0829 36.3067 58.1363 35.64C58.2163 34.9733 58.2563 34.44 58.2563 34.04C58.2563 33.96 58.2563 33.84 58.2563 33.68C58.2563 33.52 58.2563 33.2133 58.2563 32.76C58.2829 32.3067 58.2963 31.6667 58.2963 30.84C58.2963 30.04 58.2963 28.96 58.2963 27.6ZM75.5188 19.36C75.5188 19.5467 75.4521 20 75.3188 20.72C75.2121 21.4133 74.9988 22.16 74.6788 22.96C74.3854 23.7333 73.9721 24.4267 73.4388 25.04C72.9321 25.6533 72.2788 25.96 71.4788 25.96C70.6254 25.96 69.9454 25.6533 69.4388 25.04C68.9321 24.4533 68.5454 23.7467 68.2788 22.92C68.0121 22.0667 67.8388 21.1867 67.7588 20.28C67.6788 19.3467 67.6388 18.5733 67.6388 17.96C67.6388 17.2667 67.6788 16.5733 67.7588 15.88C67.8388 15.16 67.8921 14.4533 67.9188 13.76C67.9188 13.5467 67.8121 13.4133 67.5988 13.36C67.3854 13.3067 67.1854 13.28 66.9988 13.28C66.6788 13.28 66.4788 13.32 66.3988 13.4C66.3188 13.48 66.2654 13.5733 66.2388 13.68L66.0788 14.96C65.9721 15.8133 65.8521 16.64 65.7188 17.44C65.6121 18.2133 65.4788 18.9067 65.3188 19.52C65.1854 20.1067 65.0121 20.5867 64.7988 20.96C64.6121 21.3067 64.3854 21.48 64.1188 21.48H64.0788C63.9721 21.48 63.8654 21.4533 63.7588 21.4C63.6787 21.3467 63.6387 21.2133 63.6387 21C63.6387 20.8933 63.6654 20.7333 63.7188 20.52C63.9321 19.5867 64.0654 18.8133 64.1188 18.2C64.1721 17.5867 64.2121 17.04 64.2388 16.56V16.28C64.2388 16.1467 64.2388 15.9867 64.2388 15.8C64.2654 15.6133 64.2788 15.3867 64.2788 15.12V14.08C64.2788 13.7867 64.2788 13.48 64.2788 13.16C64.2788 12.84 64.2521 12.4933 64.1988 12.12L64.0788 9.76C64.0788 9.6 64.1454 9.45333 64.2788 9.32C64.4121 9.18667 64.5854 9.06667 64.7988 8.96C65.0121 8.85333 65.2388 8.77333 65.4788 8.72C65.7188 8.66667 65.9321 8.64 66.1188 8.64C66.5721 8.64 66.7988 8.93333 66.7988 9.52V9.72L66.7588 10.6V10.84C66.7588 11.0267 66.7988 11.1467 66.8788 11.2C66.9588 11.2267 67.1188 11.2667 67.3588 11.32H67.4788C67.6921 11.3467 68.0388 11.3733 68.5188 11.4C68.9988 11.4267 69.4788 11.48 69.9588 11.56C70.4388 11.64 70.8521 11.7733 71.1988 11.96C71.5721 12.12 71.7588 12.36 71.7588 12.68C71.7588 12.7867 71.7321 12.9467 71.6788 13.16C71.6254 13.3467 71.5588 13.5467 71.4788 13.76C71.3988 13.9467 71.3321 14.12 71.2788 14.28C71.2254 14.44 71.1988 14.5467 71.1988 14.6C70.7188 16.44 70.4788 18.36 70.4788 20.36C70.4788 20.52 70.4921 20.8133 70.5188 21.24C70.5454 21.6667 70.5988 22.1067 70.6788 22.56C70.7588 23.0133 70.8788 23.4133 71.0388 23.76C71.1988 24.1067 71.3988 24.28 71.6388 24.28C72.0388 24.28 72.3988 24.04 72.7188 23.56C73.0388 23.0533 73.3188 22.48 73.5588 21.84C73.7988 21.1733 73.9854 20.5067 74.1188 19.84C74.2788 19.1733 74.3854 18.68 74.4388 18.36C74.4921 18.0667 74.5721 17.8933 74.6788 17.84C74.8121 17.76 74.9321 17.72 75.0388 17.72C75.4121 17.72 75.5988 17.96 75.5988 18.44C75.5988 18.4933 75.5854 18.64 75.5588 18.88C75.5588 19.0933 75.5454 19.2533 75.5188 19.36ZM90.1959 20.64C90.1426 21.0133 90.0093 21.4533 89.7959 21.96C89.5826 22.4667 89.3026 22.96 88.9559 23.44C88.6359 23.8933 88.2493 24.28 87.7959 24.6C87.3693 24.92 86.8893 25.08 86.3559 25.08C85.5559 25.08 84.8493 24.7733 84.2359 24.16C83.6493 23.5467 83.2893 22.68 83.1559 21.56C82.9959 21.9867 82.8093 22.48 82.5959 23.04C82.3826 23.6 82.1159 24.12 81.7959 24.6C81.4759 25.08 81.1026 25.48 80.6759 25.8C80.2759 26.1467 79.7959 26.32 79.2359 26.32C79.0759 26.32 78.9559 26.3067 78.8759 26.28C78.7959 26.2533 78.7026 26.2133 78.5959 26.16C78.5159 26.1333 78.4093 26.1067 78.2759 26.08C78.1693 26.0533 78.0093 26.04 77.7959 26.04C77.1559 26.04 76.6093 25.8267 76.1559 25.4C75.7293 25 75.3826 24.48 75.1159 23.84C74.8493 23.2 74.6493 22.5067 74.5159 21.76C74.4093 20.9867 74.3559 20.2667 74.3559 19.6C74.3559 18 74.4359 16.48 74.5959 15.04C74.7826 13.6 75.0759 12.3333 75.4759 11.24C75.8759 10.12 76.3959 9.24 77.0359 8.6C77.6759 7.93333 78.4493 7.6 79.3559 7.6C79.8893 7.6 80.2893 7.65333 80.5559 7.76C80.8493 7.84 81.1159 7.94667 81.3559 8.08C81.5959 8.18667 81.8493 8.30667 82.1159 8.44C82.4093 8.57333 82.8093 8.68 83.3159 8.76C83.8759 9.08 84.2626 9.46667 84.4759 9.92C84.7159 10.3467 84.8626 10.8133 84.9159 11.32C84.9959 11.8267 85.0226 12.36 84.9959 12.92C84.9693 13.4533 84.9959 13.9867 85.0759 14.52C85.0759 14.5467 85.1293 14.5867 85.2359 14.64C85.3693 14.6933 85.5159 14.76 85.6759 14.84C85.8359 14.8933 85.9693 14.9867 86.0759 15.12C86.2093 15.2267 86.2759 15.3733 86.2759 15.56V15.72C86.0093 16.4133 85.8493 17.0267 85.7959 17.56C85.7426 18.0933 85.7159 18.7333 85.7159 19.48C85.7159 19.8533 85.7293 20.2667 85.7559 20.72C85.8093 21.1467 85.8759 21.56 85.9559 21.96C86.0626 22.3333 86.2093 22.6533 86.3959 22.92C86.5826 23.16 86.8226 23.28 87.1159 23.28C87.4359 23.28 87.7159 23.12 87.9559 22.8C88.2226 22.48 88.4359 22.12 88.5959 21.72C88.7826 21.2933 88.9293 20.8667 89.0359 20.44C89.1693 20.0133 89.2493 19.6933 89.2759 19.48C89.3293 19.16 89.4626 19 89.6759 19C89.8093 19 89.9293 19.08 90.0359 19.24C90.1693 19.3733 90.2359 19.6267 90.2359 20C90.2359 20.1067 90.2359 20.2133 90.2359 20.32C90.2359 20.4 90.2226 20.5067 90.1959 20.64ZM82.7959 14.16C82.7959 13.8667 82.7693 13.52 82.7159 13.12C82.6626 12.72 82.5693 12.3467 82.4359 12C82.3026 11.6533 82.1026 11.36 81.8359 11.12C81.5693 10.88 81.2093 10.76 80.7559 10.76C80.0093 10.76 79.3959 11.1067 78.9159 11.8C78.4626 12.4667 78.1026 13.2667 77.8359 14.2C77.5693 15.1067 77.3959 16.0533 77.3159 17.04C77.2359 18 77.1959 18.76 77.1959 19.32C77.1959 19.7467 77.2093 20.2667 77.2359 20.88C77.2893 21.4667 77.3693 22.0267 77.4759 22.56C77.5826 23.0933 77.7293 23.5467 77.9159 23.92C78.1293 24.2933 78.3959 24.48 78.7159 24.48C79.4893 24.48 80.0759 24.1867 80.4759 23.6C80.9026 22.9867 81.2226 22.24 81.4359 21.36C81.6493 20.4533 81.7959 19.4933 81.8759 18.48C81.9826 17.44 82.0759 16.4933 82.1559 15.64C82.2093 15.1867 82.3293 14.9067 82.5159 14.8C82.7026 14.6667 82.7959 14.5733 82.7959 14.52V14.16ZM102.447 15.16C102.074 15.88 101.727 16.64 101.407 17.44C101.087 18.24 100.847 18.8667 100.687 19.32C100.661 19.4533 100.581 19.7333 100.447 20.16C100.341 20.5867 100.207 21.0667 100.047 21.6C99.9139 22.1067 99.7939 22.6133 99.6872 23.12C99.5805 23.6267 99.5272 24.04 99.5272 24.36C99.5272 24.4933 99.4072 24.6133 99.1672 24.72C98.9272 24.8267 98.6205 24.88 98.2472 24.88C97.6605 24.88 97.1939 24.8 96.8472 24.64C96.5005 24.48 96.2339 24.2267 96.0472 23.88C95.8872 23.5067 95.7805 23.0267 95.7272 22.44C95.7005 21.8533 95.6872 21.1467 95.6872 20.32V17.32C95.6872 17.1067 95.6739 16.8933 95.6472 16.68C95.6472 16.4667 95.6072 16.3333 95.5272 16.28C95.3939 16.3333 95.2205 16.68 95.0072 17.32C94.8205 17.96 94.6339 18.7467 94.4472 19.68C94.2872 20.5867 94.1405 21.5467 94.0072 22.56C93.8739 23.5733 93.8072 24.48 93.8072 25.28C93.8072 25.5733 93.6472 25.7467 93.3272 25.8C93.0339 25.8533 92.7005 25.88 92.3272 25.88C92.2205 25.88 92.0339 25.8533 91.7672 25.8C91.5272 25.7733 91.2739 25.7333 91.0072 25.68C90.7672 25.6267 90.5405 25.5467 90.3272 25.44C90.1139 25.36 89.9805 25.2533 89.9272 25.12C89.7939 24.7733 89.6872 24.2 89.6072 23.4C89.5539 22.6 89.5272 21.36 89.5272 19.68C89.5272 18.6933 89.5405 17.5467 89.5672 16.24C89.6205 14.9333 89.6739 13.4 89.7272 11.64C89.7272 11.4 89.7139 11.0933 89.6872 10.72C89.6605 10.32 89.6472 10.0933 89.6472 10.04C89.6472 9.82667 89.7272 9.70667 89.8872 9.68C90.0739 9.62667 90.2072 9.6 90.2872 9.6C90.4739 9.6 90.6872 9.62667 90.9272 9.68C91.1939 9.70667 91.4472 9.74667 91.6872 9.8C91.9539 9.85333 92.1939 9.92 92.4072 10C92.6205 10.0533 92.7672 10.1067 92.8472 10.16V19.8C92.9805 19.2667 93.1272 18.6533 93.2872 17.96C93.4739 17.24 93.6739 16.5333 93.8872 15.84C94.1272 15.1467 94.3805 14.5067 94.6472 13.92C94.9139 13.3333 95.1939 12.9067 95.4872 12.64C95.5939 12.56 95.7939 12.5067 96.0872 12.48C96.3805 12.4267 96.6205 12.4 96.8072 12.4C96.9405 12.4 97.1005 12.4267 97.2872 12.48C97.5005 12.5067 97.7005 12.56 97.8872 12.64C98.0739 12.72 98.2339 12.8267 98.3672 12.96C98.5272 13.0667 98.6205 13.2 98.6472 13.36V19.84V20.2C98.6472 20.36 98.6739 20.44 98.7272 20.44C98.7805 20.44 98.9272 20.08 99.1672 19.36C99.4339 18.64 99.7405 17.7867 100.087 16.8C100.434 15.8133 100.807 14.8 101.207 13.76C101.607 12.72 101.967 11.8933 102.287 11.28C102.341 11.1733 102.514 11.12 102.807 11.12C103.127 11.0933 103.407 11.08 103.647 11.08C103.834 11.08 104.087 11.1467 104.407 11.28C104.727 11.3867 105.034 11.5467 105.327 11.76C105.647 11.9733 105.914 12.2133 106.127 12.48C106.367 12.7467 106.487 13.0267 106.487 13.32C106.487 13.3733 106.407 13.5333 106.247 13.8C106.087 14.04 105.981 14.2933 105.927 14.56C105.741 15.3067 105.607 16.04 105.527 16.76C105.474 17.48 105.447 18.4 105.447 19.52C105.447 20 105.461 20.48 105.487 20.96C105.541 21.44 105.607 21.88 105.687 22.28C105.794 22.6533 105.927 22.96 106.087 23.2C106.247 23.44 106.461 23.56 106.727 23.56C107.101 23.56 107.434 23.44 107.727 23.2C108.021 22.9333 108.274 22.5867 108.487 22.16C108.701 21.7333 108.887 21.24 109.047 20.68C109.207 20.0933 109.341 19.4933 109.447 18.88C109.581 18.24 109.821 17.92 110.167 17.92C110.381 17.92 110.514 17.9733 110.567 18.08C110.647 18.1867 110.687 18.4267 110.687 18.8C110.687 19.0133 110.674 19.16 110.647 19.24C110.621 19.5867 110.501 20.1333 110.287 20.88C110.101 21.6 109.821 22.3333 109.447 23.08C109.101 23.8 108.661 24.44 108.127 25C107.594 25.5333 106.981 25.8 106.287 25.8C105.461 25.8 104.781 25.6 104.247 25.2C103.714 24.8267 103.301 24.32 103.007 23.68C102.714 23.0133 102.501 22.2533 102.367 21.4C102.261 20.5467 102.207 19.6533 102.207 18.72V18.44L102.447 15.16Z" fill="black"/>
</svg>
